<?xml version="1.0" encoding="UTF-8"?> <!-- Generator: Adobe Illustrator 25.4.1, SVG Export Plug-In . SVG Version: 6.00 Build 0) --> <svg xmlns="http://www.w3.org/2000/svg" xmlns:xlink="http://www.w3.org/1999/xlink" id="Слой_1" x="0px" y="0px" viewBox="0 0 320 73.04" style="enable-background:new 0 0 320 73.04;" xml:space="preserve"> <style type="text/css"> .st0{fill:#131414;} .st1{fill-rule:evenodd;clip-rule:evenodd;fill:#FFFFFF;} .st2{fill-rule:evenodd;clip-rule:evenodd;fill:#78736F;} .st3{fill-rule:evenodd;clip-rule:evenodd;fill:#E77272;} </style> <g> <g> <g> <rect x="14.31" y="52.25" class="st0" width="13.07" height="0.2"></rect> </g> </g> <g> <g> <rect x="11.04" y="46.59" transform="matrix(0.5 -0.866 0.866 0.5 -31.647 38.5686)" class="st0" width="13.07" height="0.2"></rect> </g> </g> <g> <g> <rect x="17.21" y="34.91" transform="matrix(0.4998 -0.8662 0.8662 0.4998 -25.1156 34.4995)" class="st0" width="0.2" height="8.16"></rect> </g> </g> <g> <g> <rect x="-6.62" y="48.63" transform="matrix(0.5 -0.866 0.866 0.5 -38.7146 30.4055)" class="st0" width="27.2" height="0.2"></rect> </g> </g> <g> <g> <rect x="27.28" y="52.35" class="st0" width="0.2" height="8.16"></rect> </g> </g> <g> <g> <rect x="0.18" y="60.41" class="st0" width="27.2" height="0.2"></rect> </g> </g> <g> <g> <polygon class="st1" points="14.31,52.35 27.38,52.35 27.38,60.51 0.18,60.51 13.78,36.95 20.84,41.03 "></polygon> </g> <g> <path class="st0" d="M27.48,60.61H0l13.74-23.8L20.98,41l-6.49,11.26h12.99V60.61z M0.35,60.41h26.93v-7.95H14.14l6.57-11.38 l-6.89-3.98L0.35,60.41z"></path> </g> </g> <g> <g> <polygon class="st1" points="54.05,52.35 40.98,52.35 40.98,60.51 68.18,60.51 54.58,36.95 47.52,41.03 "></polygon> </g> <g> <path class="st0" d="M68.35,60.61H40.88v-8.36h12.99L47.38,41l7.24-4.18l0.05,0.09L68.35,60.61z M41.08,60.41H68L54.54,37.09 l-6.89,3.98l6.57,11.38H41.08V60.41z"></path> </g> </g> <g> <g> <polygon class="st1" points="34.18,17.94 40.71,29.25 47.78,25.18 34.18,1.62 20.58,25.18 27.64,29.25 "></polygon> </g> <g> <path class="st0" d="M27.68,29.39l-7.24-4.18l0.05-0.09L34.18,1.42l13.74,23.8l-7.24,4.18l-6.49-11.25L27.68,29.39z M34.18,17.74 l6.57,11.38l6.89-3.98L34.18,1.82L20.72,25.14l6.89,3.98L34.18,17.74z"></path> </g> </g> <g> <g> <path class="st1" d="M34.18,1.62l13.6,23.56l-7.07,4.08l-6.53-11.31l-6.54,11.31l-7.06-4.08L34.18,1.62z M14.31,52.35h13.07v8.16 H0.18l13.6-23.56l7.07,4.08L14.31,52.35z M54.58,36.95l13.6,23.56h-27.2v-8.16h13.07l-6.53-11.32L54.58,36.95z"></path> </g> <g> <path class="st0" d="M68.35,60.61H40.88v-8.36h12.99L47.38,41l7.24-4.18l0.05,0.09L68.35,60.61z M41.08,60.41H68L54.54,37.09 l-6.89,3.98l6.57,11.38H41.08V60.41z M27.48,60.61H0l13.74-23.8L20.98,41l-6.49,11.26h12.99V60.61z M0.35,60.41h26.93v-7.95 H14.14l6.57-11.38l-6.89-3.98L0.35,60.41z M27.68,29.39l-7.24-4.18l0.05-0.09L34.18,1.42l13.74,23.8l-7.24,4.18l-6.49-11.25 L27.68,29.39z M34.18,17.74l6.57,11.38l6.89-3.98L34.18,1.82L20.72,25.14l6.89,3.98L34.18,17.74z"></path> </g> </g> <g> <g> <path class="st2" d="M25.68,2.55L44.06,22.6l-6.01,5.52l-8.83-9.64l-3.93,12.46l-7.79-2.45L25.68,2.55z M17.26,56.38l12.76-2.83 l1.77,7.97L5.23,67.41l8.18-25.94l7.78,2.46L17.26,56.38z M53.24,32.63l18.38,20.06l-26.56,5.88l-1.77-7.96l12.76-2.83 l-8.83-9.64L53.24,32.63z"></path> </g> <g> <path class="st0" d="M5.08,67.54l0.05-0.17l8.21-26.04l7.97,2.52l-0.03,0.1l-3.88,12.29l12.68-2.81l1.81,8.17l-0.1,0.02 L5.08,67.54z M13.48,41.59l-8.1,25.68l26.29-5.83l-1.73-7.77l-12.83,2.85l3.95-12.53L13.48,41.59z M44.99,58.69l-1.81-8.16 l12.68-2.81l-8.78-9.58l6.16-5.65l18.57,20.26L44.99,58.69z M43.42,50.69l1.73,7.76l26.29-5.82l-18.2-19.85l-5.87,5.37l8.88,9.69 L43.42,50.69z M25.35,31.07l-7.98-2.51l8.26-26.21l0.12,0.13L44.2,22.61l-6.16,5.65l-8.78-9.58L25.35,31.07z M17.63,28.43 l7.59,2.39l3.95-12.53l8.88,9.69l5.87-5.38L25.72,2.75L17.63,28.43z"></path> </g> </g> <g> <g> <path class="st3" d="M17.58,5.3l22.28,15.6l-4.68,6.69l-10.71-7.49L23.35,33.1l-8.13-0.71L17.58,5.3z M21.02,59.67l11.84-5.52 l3.45,7.4l-24.65,11.5l2.37-27.1l8.13,0.72L21.02,59.67z M51.01,28.7l22.28,15.6L48.64,55.8l-3.45-7.4l11.84-5.52l-10.7-7.5 L51.01,28.7z"></path> </g> <g> <path class="st0" d="M11.55,73.21l2.39-27.38l8.34,0.73l-0.01,0.1l-1.12,12.84l11.77-5.49l3.53,7.58l-0.09,0.04L11.55,73.21z M14.12,46.05l-2.34,26.83l24.4-11.38l-3.36-7.21l-11.91,5.55l1.15-13.09L14.12,46.05z M48.59,55.94l-3.53-7.58l11.77-5.49 l-10.64-7.46l4.8-6.85l0.08,0.06L73.5,44.32L48.59,55.94z M45.33,48.45l3.36,7.21l24.4-11.38L51.04,28.84l-4.56,6.52l10.76,7.54 L45.33,48.45z M23.44,33.21l-8.34-0.73l2.4-27.37l22.51,15.76l-4.8,6.85l-10.65-7.45L23.44,33.21z M15.32,32.3l7.93,0.69 l1.14-13.09l10.77,7.54l4.56-6.52L17.67,5.48L15.32,32.3z"></path> </g> </g> </g> <g> <path d="M97.08,34.85l-1.22-3.25h-4.27l-1.2,3.25h-1.1l4.29-11.39h0.38l4.3,11.39H97.08z M93.31,27.01l-1.34,3.6h3.54l-1.36-3.63 l-0.4-1.68h-0.02L93.31,27.01z"></path> <path d="M99.88,34.85V23.77c0.65-0.16,1.52-0.24,2.62-0.24c0.52,0,1.01,0.05,1.47,0.16c0.46,0.11,0.9,0.28,1.33,0.52 c0.43,0.24,0.76,0.59,1.02,1.06s0.38,1.02,0.38,1.66c0,0.65-0.12,1.22-0.36,1.7c-0.24,0.49-0.57,0.86-0.99,1.14 c-0.42,0.27-0.88,0.47-1.38,0.61c-0.5,0.13-1.04,0.2-1.62,0.2c-0.67,0-1.11-0.02-1.31-0.06v4.35H99.88z M102.51,24.52 c-0.74,0-1.23,0.03-1.47,0.1v4.88c0.18,0.05,0.62,0.08,1.31,0.08c2.09,0,3.14-0.88,3.14-2.66c0-0.84-0.29-1.45-0.86-1.83 C104.04,24.71,103.34,24.52,102.51,24.52z"></path> <path d="M107.2,34.85l3.79-5.7l-3.47-5.5h1.36l2.4,3.92l0.4,0.86l0.38-0.86l2.53-3.92h1.28l-3.58,5.39l3.74,5.81h-1.33l-2.64-4.14 l-0.45-0.91l-0.42,0.91l-2.72,4.14H107.2z"></path> <path d="M124.94,34.85v-7.89l0.08-1.25h-0.05L124.28,27l-5.66,7.86h-0.61v-11.2h1.15v8.03l-0.11,1.2h0.06l0.69-1.25l5.68-7.98h0.61 v11.2H124.94z"></path> <path d="M136.06,23.65v1.02h-3.52v10.18h-1.15V24.68h-3.52v-1.02H136.06z"></path> <path d="M137.84,34.85v-11.2h5.98v0.99h-4.83v3.94h4.43v0.99h-4.43v4.29h4.91v0.99H137.84z"></path> <path d="M152.65,34.85l-4.24-5.26h-0.78v5.26h-1.15v-11.2h1.15v5.26l0.75-0.22l3.92-5.04h1.33l-3.86,4.85l-0.62,0.51l0.78,0.64 l4.19,5.2H152.65z"></path> <path d="M163.29,23.65v1.02h-3.52v10.18h-1.15V24.68h-3.52v-1.02H163.29z"></path> <path d="M165.1,23.65l2.99,6.11l0.43,1.42h0.08l0.34-1.47l2.26-6.06h1.15l-2.8,7.18c-0.67,1.73-1.18,2.84-1.51,3.34 s-0.84,0.75-1.51,0.75c-0.59,0-1.06-0.12-1.41-0.35l0.37-0.96c0.32,0.19,0.69,0.29,1.12,0.29c0.54,0,0.99-0.64,1.33-1.94 l-4.14-8.32H165.1z"></path> <path d="M173.88,34.85V23.77c0.65-0.16,1.52-0.24,2.62-0.24c0.52,0,1.01,0.05,1.47,0.16c0.46,0.11,0.9,0.28,1.33,0.52 c0.43,0.24,0.76,0.59,1.02,1.06s0.38,1.02,0.38,1.66c0,0.65-0.12,1.22-0.36,1.7c-0.24,0.49-0.57,0.86-0.99,1.14 c-0.42,0.27-0.88,0.47-1.38,0.61c-0.5,0.13-1.04,0.2-1.62,0.2c-0.67,0-1.11-0.02-1.31-0.06v4.35H173.88z M176.51,24.52 c-0.74,0-1.23,0.03-1.47,0.1v4.88c0.18,0.05,0.62,0.08,1.31,0.08c2.09,0,3.14-0.88,3.14-2.66c0-0.84-0.29-1.45-0.86-1.83 C178.04,24.71,177.34,24.52,176.51,24.52z"></path> <path d="M189.59,34.85v-5.23h-5.65v5.23h-1.15v-11.2h1.15v4.94h5.65v-4.94h1.15v11.2H189.59z"></path> <path d="M200.15,34.85l-1.22-3.25h-4.27l-1.2,3.25h-1.1l4.29-11.39h0.38l4.3,11.39H200.15z M196.38,27.01l-1.34,3.6h3.54 l-1.36-3.63l-0.4-1.68h-0.02L196.38,27.01z"></path> <path d="M209.15,23.77v11.09h-1.15v-4.98l-1.76,0.37l-2.88,4.61h-1.34l2.54-4.05l0.96-0.69c-0.81-0.18-1.46-0.55-1.96-1.1 c-0.5-0.55-0.74-1.26-0.74-2.14c0-0.62,0.11-1.15,0.32-1.6c0.21-0.45,0.51-0.8,0.89-1.05c0.38-0.25,0.8-0.43,1.26-0.54 c0.46-0.11,0.98-0.17,1.56-0.17C207.73,23.53,208.49,23.61,209.15,23.77z M206.82,24.52c-1.87,0-2.8,0.78-2.8,2.34 c0,0.8,0.26,1.4,0.79,1.8c0.53,0.4,1.2,0.6,2.02,0.6h1.15v-4.64C207.75,24.55,207.36,24.52,206.82,24.52z"></path> <path d="M224.97,34.85v-7.9l0.14-1.55h-0.06l-0.59,1.47l-3.04,5.25h-0.34l-3.2-5.26l-0.56-1.46h-0.06l0.21,1.54v7.92h-1.09v-11.2 h0.77l3.63,5.87l0.53,1.23h0.02l0.5-1.26l3.47-5.84h0.83v11.2H224.97z"></path> <path d="M235.53,34.85l-1.22-3.25h-4.27l-1.2,3.25h-1.1l4.29-11.39h0.38l4.3,11.39H235.53z M231.75,27.01l-1.34,3.6h3.54 l-1.36-3.63l-0.4-1.68h-0.02L231.75,27.01z"></path> <path d="M244.73,33.51l0.3,0.88c-0.57,0.44-1.48,0.66-2.75,0.66c-1.42,0-2.58-0.49-3.47-1.47c-0.9-0.98-1.34-2.42-1.34-4.32 c0-0.99,0.14-1.87,0.42-2.64c0.28-0.77,0.65-1.37,1.11-1.82s0.97-0.78,1.53-1c0.55-0.22,1.14-0.34,1.76-0.34 c1.07,0,1.93,0.13,2.59,0.38l-0.3,1.01c-0.51-0.25-1.25-0.37-2.21-0.37c-0.47,0-0.91,0.08-1.33,0.25 c-0.42,0.17-0.81,0.42-1.17,0.78c-0.36,0.35-0.65,0.85-0.86,1.49c-0.21,0.64-0.32,1.39-0.32,2.26c0,1.55,0.37,2.73,1.1,3.54 c0.73,0.82,1.66,1.22,2.79,1.22C243.46,34.02,244.18,33.85,244.73,33.51z"></path> <path d="M253.83,23.65v1.02h-3.52v10.18h-1.15V24.68h-3.52v-1.02H253.83z"></path> <path d="M255.61,34.85v-11.2h5.98v0.99h-4.83v3.94h4.43v0.99h-4.43v4.29h4.91v0.99H255.61z"></path> <path d="M264.25,34.85V23.77c0.65-0.16,1.52-0.24,2.62-0.24c0.52,0,1.01,0.05,1.47,0.16c0.46,0.11,0.9,0.28,1.33,0.52 c0.43,0.24,0.76,0.59,1.02,1.06s0.38,1.02,0.38,1.66c0,0.65-0.12,1.22-0.36,1.7c-0.24,0.49-0.57,0.86-0.99,1.14 c-0.42,0.27-0.88,0.47-1.38,0.61c-0.5,0.13-1.04,0.2-1.62,0.2c-0.67,0-1.11-0.02-1.31-0.06v4.35H264.25z M266.87,24.52 c-0.74,0-1.23,0.03-1.47,0.1v4.88c0.18,0.05,0.62,0.08,1.31,0.08c2.09,0,3.14-0.88,3.14-2.66c0-0.84-0.29-1.45-0.86-1.83 C268.41,24.71,267.7,24.52,266.87,24.52z"></path> <path d="M279.66,33.51l0.3,0.88c-0.57,0.44-1.48,0.66-2.75,0.66c-1.42,0-2.58-0.49-3.47-1.47c-0.9-0.98-1.34-2.42-1.34-4.32 c0-0.99,0.14-1.87,0.42-2.64c0.28-0.77,0.65-1.37,1.11-1.82s0.97-0.78,1.53-1c0.55-0.22,1.14-0.34,1.76-0.34 c1.07,0,1.93,0.13,2.59,0.38l-0.3,1.01c-0.51-0.25-1.25-0.37-2.21-0.37c-0.47,0-0.91,0.08-1.33,0.25 c-0.42,0.17-0.81,0.42-1.17,0.78c-0.36,0.35-0.65,0.85-0.86,1.49c-0.21,0.64-0.32,1.39-0.32,2.26c0,1.55,0.37,2.73,1.1,3.54 c0.73,0.82,1.66,1.22,2.79,1.22C278.39,34.02,279.11,33.85,279.66,33.51z"></path> <path d="M288.25,34.85l-4.24-5.26h-0.78v5.26h-1.15v-11.2h1.15v5.26l0.75-0.22l3.92-5.04h1.33l-3.86,4.85l-0.62,0.51l0.78,0.64 l4.19,5.2H288.25z"></path> <path d="M298.33,34.85l-1.22-3.25h-4.27l-1.2,3.25h-1.1l4.29-11.39h0.38l4.3,11.39H298.33z M294.55,27.01l-1.34,3.6h3.54 l-1.36-3.63l-0.4-1.68h-0.02L294.55,27.01z"></path> <path d="M307.32,23.77v11.09h-1.15v-4.98l-1.76,0.37l-2.88,4.61h-1.34l2.54-4.05l0.96-0.69c-0.81-0.18-1.46-0.55-1.96-1.1 c-0.5-0.55-0.74-1.26-0.74-2.14c0-0.62,0.11-1.15,0.32-1.6c0.21-0.45,0.51-0.8,0.89-1.05c0.38-0.25,0.8-0.43,1.26-0.54 c0.46-0.11,0.98-0.17,1.56-0.17C305.9,23.53,306.67,23.61,307.32,23.77z M305,24.52c-1.87,0-2.8,0.78-2.8,2.34 c0,0.8,0.26,1.4,0.79,1.8c0.53,0.4,1.2,0.6,2.02,0.6h1.15v-4.64C305.92,24.55,305.53,24.52,305,24.52z"></path> <path d="M97.08,54.05l-1.22-3.25h-4.27l-1.2,3.25h-1.1l4.29-11.39h0.38l4.3,11.39H97.08z M93.31,46.21l-1.34,3.6h3.54l-1.36-3.63 l-0.4-1.68h-0.02L93.31,46.21z"></path> <path d="M106.68,54.05v-5.23h-5.65v5.23h-1.15v-11.2h1.15v4.94h5.65v-4.94h1.15v11.2H106.68z"></path> <path d="M119.43,53.03v3.1h-0.78l-0.24-2.08h-8l-0.24,2.08h-0.78v-3.1h1.12c0.12-0.16,0.25-0.45,0.41-0.87 c0.15-0.42,0.33-1.02,0.52-1.8c0.19-0.78,0.35-1.83,0.49-3.15c0.13-1.32,0.2-2.77,0.2-4.35h5.84v10.18H119.43z M111.72,53.03h5.09 v-9.15h-3.6C113.08,48.27,112.59,51.32,111.72,53.03z"></path> <path d="M121.37,54.05V42.97c0.65-0.16,1.52-0.24,2.62-0.24c0.52,0,1.01,0.05,1.47,0.16c0.46,0.11,0.9,0.28,1.33,0.52 c0.43,0.24,0.76,0.59,1.02,1.06c0.25,0.46,0.38,1.02,0.38,1.66c0,0.65-0.12,1.22-0.36,1.7c-0.24,0.49-0.57,0.86-0.99,1.14 c-0.42,0.27-0.88,0.47-1.38,0.61c-0.5,0.13-1.04,0.2-1.62,0.2c-0.67,0-1.11-0.02-1.31-0.06v4.35H121.37z M124,43.72 c-0.74,0-1.23,0.03-1.47,0.1v4.88c0.18,0.05,0.62,0.08,1.31,0.08c2.09,0,3.14-0.88,3.14-2.66c0-0.84-0.29-1.45-0.86-1.83 C125.53,43.91,124.83,43.72,124,43.72z"></path> <path d="M130.28,54.05v-11.2h5.98v0.99h-4.83v3.94h4.43v0.99h-4.43v4.29h4.91v0.99H130.28z"></path> <path d="M145.11,42.97v11.09h-1.15v-4.98l-1.76,0.37l-2.88,4.61h-1.34l2.54-4.05l0.96-0.69c-0.81-0.18-1.46-0.55-1.96-1.1 c-0.5-0.55-0.74-1.26-0.74-2.14c0-0.62,0.11-1.15,0.32-1.6c0.21-0.45,0.51-0.8,0.89-1.05c0.38-0.25,0.8-0.43,1.26-0.54 c0.46-0.11,0.98-0.17,1.56-0.17C143.7,42.73,144.46,42.81,145.11,42.97z M142.79,43.72c-1.87,0-2.8,0.78-2.8,2.34 c0,0.8,0.26,1.4,0.79,1.8c0.53,0.4,1.2,0.6,2.02,0.6h1.15v-4.64C143.72,43.75,143.33,43.72,142.79,43.72z"></path> <path d="M158.52,54.05l-4.24-5.26h-0.78v5.26h-1.15v-11.2h1.15v5.26l0.75-0.22l3.92-5.04h1.33l-3.86,4.85l-0.62,0.51l0.78,0.64 l4.19,5.2H158.52z"></path> <path d="M168.6,54.05l-1.22-3.25h-4.27l-1.2,3.25h-1.1l4.29-11.39h0.38l4.3,11.39H168.6z M164.83,46.21l-1.34,3.6h3.54l-1.36-3.63 l-0.4-1.68h-0.02L164.83,46.21z"></path> <path d="M171.4,54.05V42.97c0.65-0.16,1.52-0.24,2.62-0.24c0.52,0,1.01,0.05,1.47,0.16c0.46,0.11,0.9,0.28,1.33,0.52 c0.43,0.24,0.76,0.59,1.02,1.06s0.38,1.02,0.38,1.66c0,0.65-0.12,1.22-0.36,1.7c-0.24,0.49-0.57,0.86-0.99,1.14 c-0.42,0.27-0.88,0.47-1.38,0.61c-0.5,0.13-1.04,0.2-1.62,0.2c-0.67,0-1.11-0.02-1.31-0.06v4.35H171.4z M174.02,43.72 c-0.74,0-1.23,0.03-1.47,0.1v4.88c0.18,0.05,0.62,0.08,1.31,0.08c2.09,0,3.14-0.88,3.14-2.66c0-0.84-0.29-1.45-0.86-1.83 C175.56,43.91,174.86,43.72,174.02,43.72z"></path> <path d="M185.86,54.05l-1.22-3.25h-4.27l-1.2,3.25h-1.1l4.29-11.39h0.38l4.3,11.39H185.86z M182.09,46.21l-1.34,3.6h3.54 l-1.36-3.63l-0.4-1.68h-0.02L182.09,46.21z"></path> <path d="M194.62,54.05V43.88h-3.55c-0.21,4.45-0.61,7.36-1.2,8.74c-0.43,1-1.02,1.5-1.79,1.5c-0.35,0-0.63-0.04-0.85-0.13L187.4,53 c0.11,0.03,0.21,0.05,0.32,0.05c0.42,0,0.78-0.3,1.09-0.9c0.68-1.35,1.07-4.45,1.17-9.3h5.79v11.2H194.62z"></path> <path d="M198.67,54.05v-11.2h5.98v0.99h-4.83v3.94h4.43v0.99h-4.43v4.29h4.91v0.99H198.67z M199.27,41.37 c0-0.21,0.07-0.39,0.22-0.52c0.15-0.13,0.34-0.2,0.56-0.2c0.21,0,0.39,0.07,0.54,0.2c0.15,0.13,0.22,0.31,0.22,0.52 c0,0.2-0.07,0.37-0.22,0.5c-0.15,0.13-0.33,0.2-0.54,0.2c-0.22,0-0.41-0.07-0.56-0.2C199.35,41.74,199.27,41.57,199.27,41.37z M202.27,41.37c0-0.21,0.07-0.39,0.22-0.52c0.15-0.13,0.33-0.2,0.54-0.2c0.22,0,0.41,0.07,0.56,0.2c0.15,0.13,0.22,0.31,0.22,0.52 c0,0.2-0.07,0.37-0.22,0.5c-0.15,0.13-0.34,0.2-0.56,0.2c-0.21,0-0.39-0.07-0.54-0.2C202.34,41.74,202.27,41.57,202.27,41.37z"></path> <path d="M213.9,45.4c0,0.59-0.19,1.13-0.56,1.64c-0.37,0.51-0.9,0.84-1.58,1.02v0.06c0.71,0.13,1.31,0.41,1.78,0.86 c0.47,0.44,0.7,1.07,0.7,1.88c0,0.74-0.21,1.36-0.62,1.88c-0.41,0.52-0.92,0.89-1.53,1.11c-0.61,0.22-1.27,0.34-2,0.34 c-1.29,0-2.22-0.07-2.78-0.21V42.95c0.92-0.15,1.92-0.22,3.02-0.22c0.44,0,0.85,0.04,1.22,0.11c0.38,0.07,0.75,0.2,1.13,0.38 c0.37,0.18,0.67,0.45,0.89,0.82C213.79,44.41,213.9,44.86,213.9,45.4z M208.46,47.88h0.86c0.51,0,0.96-0.03,1.36-0.08 c0.58-0.19,1.05-0.47,1.43-0.84s0.57-0.81,0.57-1.32c0-0.68-0.24-1.17-0.71-1.47s-1.07-0.45-1.8-0.45c-0.84,0-1.41,0.03-1.71,0.1 V47.88z M210.25,53.19c0.77,0,1.42-0.19,1.96-0.58c0.54-0.38,0.81-0.92,0.81-1.62c0-1.44-1.04-2.16-3.1-2.16h-1.46v4.22 C208.78,53.15,209.37,53.19,210.25,53.19z"></path> <path d="M223.16,54.05l-1.22-3.25h-4.27l-1.2,3.25h-1.1l4.29-11.39h0.38l4.3,11.39H223.16z M219.38,46.21l-1.34,3.6h3.54 l-1.36-3.63l-0.4-1.68h-0.02L219.38,46.21z"></path> </g> </svg> 